<svg width="245" height="390" viewBox="0 0 245 390" fill="none" xmlns="http://www.w3.org/2000/svg">
<path d="M241.641 119.809C241.697 120.347 242.17 120.743 242.71 120.703C243.25 120.662 243.659 120.2 243.634 119.659C242.371 92.3652 228.45 62.7194 206.711 39.9049C184.965 17.0828 155.302 1 122.471 1C89.6454 1 59.9829 16.8477 38.2347 39.4401C16.4938 62.0248 2.5715 91.4415 1.30838 118.737C1.28337 119.278 1.69292 119.74 2.23257 119.781C2.77221 119.821 3.24612 119.425 3.30197 118.887C3.80366 114.052 6.37688 110.622 10.3666 108.364C14.3989 106.081 19.8925 104.993 26.1258 104.993C32.674 104.993 38.6497 106.476 42.9566 109.255C47.2329 112.014 49.8553 116.033 49.8646 121.244C49.8656 121.795 50.3131 122.242 50.8646 122.242C51.4162 122.242 51.8637 121.795 51.8646 121.244C51.8739 115.988 54.2487 111.974 58.2017 109.236C62.19 106.475 67.8253 104.993 74.2985 104.993C87.1366 104.993 97.2533 113.792 97.2533 124.315C97.2533 124.868 97.701 125.315 98.2533 125.315C98.8056 125.315 99.2533 124.868 99.2533 124.315C99.2533 113.801 109.477 104.993 122.471 104.993C135.461 104.993 145.682 113.795 145.689 124.304C145.69 124.856 146.137 125.304 146.689 125.304C147.241 125.304 147.689 124.856 147.689 124.304C147.696 113.786 157.811 104.993 170.644 104.993C177.115 104.993 182.914 106.544 187.064 109.388C191.185 112.211 193.693 116.307 193.693 121.549C193.693 122.04 194.049 122.459 194.534 122.537C195.018 122.615 195.488 122.329 195.642 121.863C198.009 114.706 205.999 104.993 218.817 104.993C225.02 104.993 230.507 106.3 234.541 108.804C238.548 111.29 241.137 114.958 241.641 119.809Z" fill="#BBBBBB" stroke="#BBBBBB" stroke-width="2" stroke-linecap="round" stroke-linejoin="round"/>
<line x1="1" y1="-1" x2="242.931" y2="-1" transform="matrix(0.494252 0.869319 -0.790441 0.612538 2 118.783)" stroke="#BBBBBB" stroke-width="2" stroke-linecap="round" stroke-linejoin="round"/>
<line x1="1" y1="-1" x2="220.659" y2="-1" transform="matrix(0.325399 0.945577 -0.905357 0.424652 50.4361 121.242)" stroke="#BBBBBB" stroke-width="2" stroke-linecap="round" stroke-linejoin="round"/>
<path d="M97.8854 123.393L123.171 330.118" stroke="#BBBBBB" stroke-width="2" stroke-linecap="round" stroke-linejoin="round"/>
<path d="M146.75 123.701L122.758 330.253" stroke="#BBBBBB" stroke-width="2" stroke-linecap="round" stroke-linejoin="round"/>
<path d="M194.428 122.164L122.811 330.339" stroke="#BBBBBB" stroke-width="2" stroke-linecap="round" stroke-linejoin="round"/>
<path d="M242.601 120.32L122.785 331.008" stroke="#BBBBBB" stroke-width="2" stroke-linecap="round" stroke-linejoin="round"/>
<path d="M98.5 333.379C98.5 330.618 100.739 328.379 103.5 328.379H132.92L146.443 342.209V383C146.443 385.761 144.204 388 141.443 388H103.5C100.739 388 98.5 385.761 98.5 383V333.379Z" fill="white"/>
<path d="M132.92 328.379H103.5C100.739 328.379 98.5 330.618 98.5 333.379V383C98.5 385.761 100.739 388 103.5 388H141.443C144.204 388 146.443 385.761 146.443 383V342.209M132.92 328.379V337.209C132.92 339.97 135.159 342.209 137.92 342.209H146.443M132.92 328.379L146.443 342.209" stroke="#BBBBBB" stroke-width="4" stroke-linecap="round" stroke-linejoin="round"/>
<line x1="107.876" y1="347.277" x2="134.608" y2="347.277" stroke="#BBBBBB" stroke-width="4" stroke-linecap="round" stroke-linejoin="round"/>
<line x1="107.876" y1="354.653" x2="134.608" y2="354.653" stroke="#BBBBBB" stroke-width="4" stroke-linecap="round" stroke-linejoin="round"/>
<line x1="107.876" y1="362.029" x2="134.608" y2="362.029" stroke="#BBBBBB" stroke-width="4" stroke-linecap="round" stroke-linejoin="round"/>
<line x1="107.876" y1="369.404" x2="134.608" y2="369.404" stroke="#BBBBBB" stroke-width="4" stroke-linecap="round" stroke-linejoin="round"/>
</svg>
