<svg version="1.2" baseProfile="tiny-ps" xmlns="http://www.w3.org/2000/svg" viewBox="0 0 1500 1000" width="1500" height="1000"><title>2709281-ai</title><defs><linearGradient id="grd1" gradientUnits="userSpaceOnUse"  x1="1504" y1="-103.896" x2="1504" y2="792.208"><stop offset="0" stop-color="#3b3655"  /><stop offset="1" stop-color="#fb9676"  /></linearGradient><radialGradient id="grd2" gradientUnits="userSpaceOnUse"  cx="177.74" cy="221.518" r="32.507"><stop offset="0" stop-color="#ffffff" stop-opacity="0.5" /><stop offset="0.534" stop-color="#ffffff" stop-opacity="0" /></radialGradient><radialGradient id="grd3" gradientUnits="userSpaceOnUse"  cx="1448.669" cy="340.263" r="24.767"><stop offset="0" stop-color="#ffffff" stop-opacity="0.5" /><stop offset="0.534" stop-color="#ffffff" stop-opacity="0" /></radialGradient><radialGradient id="grd4" gradientUnits="userSpaceOnUse"  cx="1397.615" cy="128.755" r="19.607"><stop offset="0" stop-color="#ffffff" stop-opacity="0.5" /><stop offset="0.534" stop-color="#ffffff" stop-opacity="0" /></radialGradient><radialGradient id="grd5" gradientUnits="userSpaceOnUse"  cx="403.613" cy="334.185" r="19.607"><stop offset="0" stop-color="#ffffff" stop-opacity="0.5" /><stop offset="0.534" stop-color="#ffffff" stop-opacity="0" /></radialGradient><radialGradient id="grd6" gradientUnits="userSpaceOnUse"  cx="603.525" cy="173.646" r="11.505"><stop offset="0" stop-color="#ffffff" stop-opacity="0.5" /><stop offset="0.534" stop-color="#ffffff" stop-opacity="0" /></radialGradient><radialGradient id="grd7" gradientUnits="userSpaceOnUse"  cx="143.842" cy="431.538" r="11.505"><stop offset="0" stop-color="#ffffff" stop-opacity="0.5" /><stop offset="0.534" stop-color="#ffffff" stop-opacity="0" /></radialGradient><radialGradient id="grd8" gradientUnits="userSpaceOnUse"  cx="1032.34" cy="253.26" r="11.505"><stop offset="0" stop-color="#ffffff" stop-opacity="0.5" /><stop offset="0.534" stop-color="#ffffff" stop-opacity="0" /></radialGradient></defs><style>tspan { white-space:pre }.shp0 { fill: url(#grd1) } .shp1 { opacity: 0.102;fill: #ffffff } .shp2 { fill: #65577a } .shp3 { fill: #ffffff } .shp4 { opacity: 0.2;fill: #ffffff } .shp5 { fill: #463956 } .shp6 { fill: #352c42 } .shp7 { opacity: 0.051;fill: #ffffff } .shp8 { fill: #eeedee } .shp9 { fill: url(#grd2) } .shp10 { fill: url(#grd3) } .shp11 { fill: url(#grd4) } .shp12 { fill: url(#grd5) } .shp13 { fill: url(#grd6) } .shp14 { fill: url(#grd7) } .shp15 { fill: url(#grd8) } </style><g ><g ></g><path class="shp0" d="M1500 1000L0 1000L0 0L1500 0L1500 1000Z" /></g><g ><g ><g ><path class="shp1" d="M-314.83 743.73C-214.25 757.93 -145.8 757.93 -109.47 743.73C-54.98 722.44 -54.08 701.14 -14.62 704.9C24.84 708.66 -3.58 634.35 31.87 594.67C73.83 547.7 146.15 548.25 181.4 599.5C218.57 653.55 198.32 698.73 217.9 697.64C250.72 695.81 237.36 623.49 297.54 623.48C342.95 623.48 360.8 654.8 396.5 679.22C432.2 703.65 443.44 676.21 484.19 688.62C521.8 700.07 540.9 771.2 612.29 771.2C683.69 771.2 668.55 758.66 709 717.09C752.76 672.11 819.58 679.4 858.82 748.69C878.08 782.71 890.12 696.42 962.6 716.99C1005.15 729.06 988.9 674 1043.89 658.44C1094.33 644.15 1114.25 711.16 1146.19 707.41C1178.13 703.65 1164.98 641.65 1251.41 636.01C1269.48 579.93 1307.68 549.24 1366.02 543.94C1467.48 534.73 1488.15 643.52 1490.03 690.5C1491.91 737.47 1670.4 721.2 1692.95 723.71C1707.98 725.38 1712.99 773.82 1707.98 869.03L-314.83 869.03L-314.83 743.73Z" /><g ><path class="shp2" d="M-151.62 923.73C-134.66 876.14 -119.52 854.46 -106.2 858.7C-86.22 865.06 -53.52 844.9 -38.08 834.91C-22.64 824.91 -27.18 792.13 -12.64 779.41C1.89 766.69 24.6 767.56 33.68 750.3C42.76 733.04 69.1 756.63 75.91 771.17C82.73 785.7 80.91 805.97 94.54 809.91C108.16 813.84 125.42 812.02 143.58 802.94C161.75 793.86 189.91 805.66 212.61 804.75C235.32 803.85 229.87 769.33 244.41 777.5C258.94 785.68 269.84 794.76 303.44 784.77C337.05 774.78 345.23 774.78 366.12 763.88C387.01 752.98 396.09 774.78 425.16 762.06C454.22 749.34 482.38 763.88 497.82 759.34C513.26 754.79 518.71 733.9 533.25 728.45C547.78 723 590.47 755.16 621.35 777.86C641.94 793 684.93 841.63 750.33 923.73L-151.62 923.73Z" /></g><g style="opacity: 0.2"><path class="shp3" d="M524.24 746.87C529.67 738.37 536.77 734.31 545.51 734.71C558.62 735.31 568.44 751.78 588.66 760.24C608.88 768.69 621.09 792.12 633.64 796.71C646.18 801.29 675.88 842.25 681.81 850C687.73 857.75 666 837.12 655.52 823.45C645.03 809.77 635 807.04 626.8 800.2C618.59 793.36 617.41 786.52 602.5 776.95C587.6 767.38 583.49 761.45 581.22 768.29C578.94 775.13 571.19 777.86 569.36 770.57C567.54 763.28 564.35 754.16 557.06 748.23C549.76 742.31 548.4 740.03 540.65 740.94C535.48 741.55 530.01 743.52 524.24 746.87Z" /></g><path class="shp4" d="M242.53 784.7C253.77 789.56 263.04 793.36 270.34 796.1C281.28 800.2 298.14 801.57 308.17 808.4C318.2 815.24 327.32 822.99 342.81 828.01C353.15 831.35 364.39 835 376.55 838.95C359.83 837.73 345.4 834.08 333.24 828.01C315.01 818.89 315.01 816.61 302.24 811.82C289.48 807.04 270.79 812.96 264.87 807.95C260.92 804.61 253.47 796.86 242.53 784.7Z" /><path class="shp4" d="M43.18 749.6C52.3 754.87 58.58 759.02 62.02 762.06C65.46 765.1 67.19 766.62 67.19 766.62C70.63 772.5 72.66 777.36 73.26 781.21C74.18 786.98 71.44 782.12 68.71 777.26C65.97 772.39 64.75 766.92 59.59 765.1C54.42 763.28 48.04 766.32 46.82 761.15C46.01 757.71 44.8 753.86 43.18 749.6Z" /><g ><path class="shp5" d="M498.14 926.09C475.79 928.12 487.48 914.41 505.76 914.41C524.05 914.41 538.28 910.34 549.96 911.36C561.65 912.38 572.31 897.81 584.17 900.18C596.02 902.55 624.13 882.57 639.37 875.12C654.61 867.67 653.6 853.45 663.08 853.11C672.56 852.77 696.61 847.01 716.25 839.9C735.89 832.79 760.95 831.77 779.92 824.32C798.89 816.87 823.61 816.19 850.7 817.89C877.8 819.58 918.27 804.17 946.21 779.78C974.15 755.4 991.93 739.65 1010.22 748.8C1028.51 757.94 1070.67 780.8 1088.45 787.4C1106.23 794.01 1113.85 779.78 1127.06 786.9C1140.27 794.01 1152.46 795.53 1182.94 775.21C1213.42 754.89 1228.32 712.22 1233.74 695.96C1239.16 679.71 1254.06 681.74 1264.22 676.32C1274.38 670.9 1287.25 618.75 1302.83 609.94C1318.41 601.13 1360.41 605.2 1369.21 609.94C1378.02 614.68 1405.11 676.32 1415.27 691.9C1425.43 707.48 1457.95 752.18 1504 787.4C1550.06 822.63 1769.73 871.48 1785.99 938.32C942.33 928.81 513.05 924.74 498.14 926.09Z" /></g><g style="opacity: 0.102"><path class="shp3" d="M1358.11 614.37C1368.64 623.29 1375.94 632.2 1379.99 641.11C1386.07 654.48 1401.26 684.87 1417.67 709.18C1434.08 733.5 1465.69 767.53 1484.53 782.12C1503.37 796.71 1468.12 779.69 1448.67 763.28C1429.22 746.87 1434.69 749.91 1418.89 749.3C1403.09 748.69 1408.56 736.53 1403.69 720.12C1398.83 703.71 1387.89 696.42 1375.74 678.8C1363.58 661.17 1369.05 636.86 1355.68 630.78C1342.31 624.7 1335.01 610.12 1358.11 614.37Z" /></g><path class="shp1" d="M1006.99 751.58C1018.19 756.97 1030.12 763.12 1042.77 770.03C1061.76 780.38 1081.17 794.78 1094.96 798.5C1108.74 802.21 1125.78 808.12 1131.76 809.77C1137.73 811.43 1129.63 815.3 1115.81 810.22C1101.98 805.14 1081.42 803.44 1070.86 801C1060.3 798.56 1056.33 803.24 1053.7 806.96C1051.07 810.68 1046.94 809.89 1046.68 800.77C1046.43 791.66 1046.86 785.64 1036.19 779.03C1025.51 772.41 1018.23 767.53 1012.83 769.96C1007.42 772.39 1000.8 763.76 999.88 758.32C999.27 754.68 1001.64 752.44 1006.99 751.58Z" /><path class="shp1" d="M1179.73 787.66C1196.74 778.09 1208.6 767.84 1215.28 756.9C1225.31 740.49 1233.51 720.43 1236.71 709.94C1239.9 699.46 1238.53 691.71 1252.2 688.98C1265.88 686.24 1276.82 678.95 1271.8 684.42C1266.79 689.89 1259.95 689.43 1251.75 694.45C1243.54 699.46 1240.35 712.68 1239.9 724.08C1239.44 735.47 1237.62 744.13 1234.43 755.07C1231.24 766.01 1227.08 762.36 1215.74 766.01C1204.4 769.66 1202.52 781.97 1187.93 790.17C1173.34 798.38 1164.57 797.75 1179.73 787.66Z" /><path class="shp1" d="M679.22 857.48C689.75 857.48 701.1 854.85 713.26 849.58C731.49 841.68 758.84 836.82 770.39 833.17C781.93 829.53 784.37 825.88 798.95 824.66C813.54 823.45 813.54 824.66 827.52 824.66C841.5 824.66 829.95 828.92 816.58 828.92C803.21 828.92 792.27 829.53 782.54 834.39C772.82 839.25 762.15 843.5 756.55 850.19C750.94 856.88 743.04 871.46 734.53 877.54C726.02 883.62 734.53 869.64 741.82 859.31C749.11 848.97 758.23 842.9 744.86 845.33C731.49 847.76 718.12 852.01 707.79 856.88C700.9 860.12 691.38 860.32 679.22 857.48Z" /><g ><path class="shp6" d="M-292.62 920.08L19.79 920.08C51.65 921.81 73.86 908.19 86.41 879.22C105.24 835.77 128.41 847.2 141.45 853C154.48 858.79 180.55 836.99 190.69 863.06C200.83 889.13 200.83 915.24 232.69 919.54C264.56 923.85 306.56 921.01 454.29 919.52C602.02 918.03 629.54 924.13 684.57 921.8C739.61 919.47 916.31 912.23 945.27 913.67C974.24 915.12 995.96 929.54 1017.69 922.33C1039.41 915.12 1064.04 906.43 1111.83 907.88C1159.63 909.33 1214.66 908.34 1237.84 885.66C1261.01 862.98 1310.25 883.12 1337.77 846.98C1365.29 810.84 1404.39 807.94 1427.57 832.56C1450.74 857.18 1483.84 917.62 1531.63 924.34C1563.5 928.81 1630.05 928.81 1731.29 924.34L1731.29 1164.41L-292.62 1164.41L-292.62 920.08Z" /></g><g ><path class="shp6" d="M292.33 931.02L289.71 883.79C282.95 888.11 278.68 885.98 276.91 877.38C275.32 869.71 275.67 845.2 276.22 841.07C276.77 836.93 282.3 836.95 284.08 842.46C285.86 847.97 283.61 869.67 283.61 874.09C283.61 881.71 290.04 881.14 289.58 873.89C289.47 872.23 289.44 859.43 289.44 852.54C289.44 845.66 296.87 843.59 297.7 850.61C298.53 857.63 297.7 880.22 298.25 883.52C298.8 886.82 303.07 887.09 304.45 882.27C305.82 877.45 303.48 863.82 304.45 859C305.41 854.18 312.99 853.63 313.4 864.92C313.81 876.21 309.54 890.54 301.01 891.23L296.74 931.02L292.33 931.02Z" /></g><g ><path class="shp6" d="M1293.91 883.62L1291.63 853.42C1280.09 853.23 1274.01 850.85 1273.4 846.3C1272.49 839.46 1272.26 818.58 1273.4 813.11C1274.54 807.64 1284.34 807.91 1284.57 817.93C1284.8 827.96 1280.69 836.19 1281.83 842.34C1282.97 848.5 1287.99 849.95 1290.27 846.95C1292.55 843.95 1284.34 793.81 1287.76 779.68C1291.18 765.55 1301.43 771.25 1301.89 781.05C1302.35 790.85 1298.47 826.41 1300.52 832.11C1302.57 837.8 1308.96 838.03 1309.18 825.27C1309.41 812.51 1302.8 792.45 1309.18 791.54C1315.57 790.63 1323.09 798.15 1318.98 817.52C1314.88 836.89 1311.92 842.93 1301.89 843.39L1298.93 883.62L1293.91 883.62Z" /></g><g ><path class="shp6" d="M805.96 927.38L804.78 911.7C798.78 911.6 795.63 910.37 795.31 908.01C794.84 904.46 794.72 893.62 795.31 890.78C795.91 887.94 800.99 888.08 801.11 893.29C801.23 898.49 799.1 902.76 799.69 905.95C800.28 909.15 802.89 909.9 804.07 908.35C805.25 906.79 800.99 880.77 802.77 873.43C804.54 866.1 809.87 869.06 810.1 874.14C810.34 879.23 808.33 897.68 809.39 900.64C810.46 903.6 813.77 903.72 813.89 897.09C814.01 890.47 810.57 880.06 813.89 879.59C817.2 879.11 821.1 883.02 818.97 893.07C816.84 903.13 815.31 906.26 810.1 906.5L808.56 927.38L805.96 927.38Z" /></g><g style="opacity: 0.102"><path class="shp3" d="M1345.19 850.34C1336.42 863.78 1326.54 872.29 1315.57 875.87C1299.1 881.23 1278.64 885.9 1263.6 883.62C1248.56 881.34 1244.91 891.37 1235.79 895.92C1226.68 900.48 1218.93 905.95 1207.53 907.78C1196.14 909.6 1177.9 910.06 1181.09 910.97C1184.28 911.88 1202.52 915.07 1213 910.97C1223.49 906.87 1239.67 900.26 1245.82 894.33C1251.98 888.4 1261.55 887.95 1271.12 889.09C1280.69 890.23 1319.44 882.48 1326.73 877.01C1334.03 871.54 1343.37 860.37 1346.56 855.36C1349.75 850.34 1348.45 845.89 1345.19 850.34Z" /></g><path class="shp1" d="M-129.65 388.71C-129.65 379.51 -118.3 376.06 -95.61 378.36C-71.3 380.82 -62.8 361.59 -39.86 366.77C-16.92 371.95 13.17 373.8 25.01 370.84C36.85 367.88 44.25 351.54 62.01 342.66C79.77 333.78 99.01 336.71 115.29 353.73C131.57 370.75 159.69 372.95 173.75 369.99C187.81 367.03 188.6 379.49 207.05 377.87C229.58 375.9 242.65 379.51 246.27 388.71L-129.65 388.71Z" /><path class="shp1" d="M1273.02 508.01C1273.02 498.81 1284.37 495.35 1307.06 497.66C1331.37 500.12 1339.87 480.89 1362.81 486.07C1385.74 491.25 1415.84 493.1 1427.68 490.14C1439.52 487.18 1446.92 470.84 1464.68 461.96C1482.44 453.08 1501.68 456.01 1517.95 473.03C1534.23 490.05 1562.35 492.25 1576.41 489.29C1590.47 486.33 1591.27 498.79 1609.71 497.17C1632.24 495.2 1645.31 498.81 1648.93 508.01L1273.02 508.01Z" /><path class="shp1" d="M743.39 229.49C743.39 220.29 754.73 216.84 777.43 219.14C801.73 221.61 810.23 202.37 833.17 207.55C856.11 212.73 886.2 214.58 898.04 211.62C909.88 208.66 917.28 192.32 935.04 183.44C952.8 174.56 972.04 177.49 988.32 194.51C1004.6 211.53 1032.72 213.74 1046.78 210.78C1060.84 207.82 1061.64 220.27 1080.08 218.66C1102.61 216.68 1115.68 220.3 1119.3 229.49L743.39 229.49Z" /><path class="shp7" d="M426.98 612.62C426.98 609.82 430.53 608.77 437.65 609.5C445.27 610.27 447.93 604.3 455.12 605.92C462.31 607.54 471.75 608.15 475.46 607.23C479.17 606.3 481.49 601.19 487.06 598.41C492.62 595.62 498.65 596.55 503.76 601.88C508.86 607.22 517.67 607.91 522.08 606.99C526.49 606.06 526.74 609.85 532.52 609.34C539.58 608.72 543.68 609.82 544.81 612.62L426.98 612.62Z" /><path class="shp1" d="M1078.54 381C1078.54 378.09 1082.89 377.07 1091.57 377.95C1100.87 378.9 1104.13 372 1112.91 373.98C1121.69 375.96 1133.21 376.9 1137.74 375.77C1142.27 374.63 1145.1 368.49 1151.9 365.1C1158.7 361.7 1166.06 362.88 1172.29 369.39C1178.53 375.9 1189.29 376.78 1194.67 375.64C1200.05 374.51 1200.36 378.37 1207.42 377.75C1216.04 377 1221.04 378.08 1222.43 381L1078.54 381Z" /><path class="shp1" d="M185.72 535.52C187.04 532.28 191.18 531 198.14 531.66C208.57 532.65 213.79 532.59 220.5 527.37C227.21 522.15 234.41 519.14 240.87 519.88C247.33 520.63 255.03 529.93 259.75 530.42C264.47 530.92 269.2 526.15 273.67 528.56C278.14 530.98 281.62 530.51 286.34 527.52C291.06 524.54 296.28 522.59 302.98 527.74C309.69 532.89 327.08 531.87 330.06 535.52L185.72 535.52Z" /><g style="opacity: 0.502"><g ><path class="shp8" d="M185.72 221.52C185.72 225.92 182.15 229.49 177.74 229.49C173.33 229.49 169.76 225.92 169.76 221.52C169.76 217.11 173.33 213.54 177.74 213.54C182.15 213.54 185.72 217.11 185.72 221.52Z" /></g><path class="shp9" d="M196.89 221.52C196.89 232.09 188.31 240.66 177.74 240.66C167.17 240.66 158.59 232.09 158.59 221.52C158.59 210.94 167.17 202.37 177.74 202.37C188.31 202.37 196.89 210.94 196.89 221.52Z" /></g><g ><g ><path class="shp8" d="M1454.75 340.26C1454.75 343.62 1452.03 346.34 1448.67 346.34C1445.31 346.34 1442.59 343.62 1442.59 340.26C1442.59 336.91 1445.31 334.18 1448.67 334.18C1452.03 334.18 1454.75 336.91 1454.75 340.26Z" /></g><path class="shp10" d="M1463.26 340.26C1463.26 348.32 1456.72 354.85 1448.67 354.85C1440.61 354.85 1434.08 348.32 1434.08 340.26C1434.08 332.21 1440.61 325.68 1448.67 325.68C1456.72 325.68 1463.26 332.21 1463.26 340.26Z" /></g><g ><g ><path class="shp8" d="M1402.43 128.76C1402.43 131.41 1400.27 133.57 1397.62 133.57C1394.96 133.57 1392.8 131.41 1392.8 128.76C1392.8 126.1 1394.96 123.94 1397.62 123.94C1400.27 123.94 1402.43 126.1 1402.43 128.76Z" /></g><path class="shp11" d="M1409.16 128.76C1409.16 135.13 1403.99 140.3 1397.62 140.3C1391.24 140.3 1386.07 135.13 1386.07 128.76C1386.07 122.38 1391.24 117.21 1397.62 117.21C1403.99 117.21 1409.16 122.38 1409.16 128.76Z" /></g><g ><g ><path class="shp8" d="M408.42 334.18C408.42 336.84 406.27 339 403.61 339C400.96 339 398.8 336.84 398.8 334.18C398.8 331.53 400.96 329.37 403.61 329.37C406.27 329.37 408.42 331.53 408.42 334.18Z" /></g><path class="shp12" d="M415.16 334.18C415.16 340.56 409.99 345.73 403.61 345.73C397.24 345.73 392.07 340.56 392.07 334.18C392.07 327.81 397.24 322.64 403.61 322.64C409.99 322.64 415.16 327.81 415.16 334.18Z" /></g><g ><g ><path class="shp8" d="M606.35 173.65C606.35 175.21 605.08 176.47 603.52 176.47C601.97 176.47 600.7 175.21 600.7 173.65C600.7 172.09 601.97 170.82 603.52 170.82C605.08 170.82 606.35 172.09 606.35 173.65Z" /></g><path class="shp13" d="M610.3 173.65C610.3 177.39 607.27 180.42 603.52 180.42C599.78 180.42 596.75 177.39 596.75 173.65C596.75 169.9 599.78 166.87 603.52 166.87C607.27 166.87 610.3 169.9 610.3 173.65Z" /></g><g ><g ><path class="shp8" d="M146.67 431.54C146.67 433.1 145.4 434.36 143.84 434.36C142.28 434.36 141.02 433.1 141.02 431.54C141.02 429.98 142.28 428.71 143.84 428.71C145.4 428.71 146.67 429.98 146.67 431.54Z" /></g><path class="shp14" d="M150.62 431.54C150.62 435.28 147.58 438.31 143.84 438.31C140.1 438.31 137.07 435.28 137.07 431.54C137.07 427.8 140.1 424.76 143.84 424.76C147.58 424.76 150.62 427.8 150.62 431.54Z" /></g><g ><g ><path class="shp8" d="M1035.16 253.26C1035.16 254.82 1033.9 256.08 1032.34 256.08C1030.78 256.08 1029.52 254.82 1029.52 253.26C1029.52 251.7 1030.78 250.44 1032.34 250.44C1033.9 250.44 1035.16 251.7 1035.16 253.26Z" /></g><path class="shp15" d="M1039.12 253.26C1039.12 257 1036.08 260.04 1032.34 260.04C1028.6 260.04 1025.56 257 1025.56 253.26C1025.56 249.52 1028.6 246.48 1032.34 246.48C1036.08 246.48 1039.12 249.52 1039.12 253.26Z" /></g></g></g><g ><g ></g><g ><g ><g ></g><g ></g></g></g></g></g><g ><g ><g ><g ></g></g><g ></g></g></g></svg>